<svg xmlns="http://www.w3.org/2000/svg" viewBox="0 0 256 256" role="img" aria-label="front white office chair back">
  <defs><linearGradient id="c" x1="0" y1="0" x2="0" y2="1"><stop offset="0" stop-color="#ffffff"/><stop offset="1" stop-color="#e7edf3"/></linearGradient><filter id="s" x="-35%" y="-35%" width="170%" height="170%"><feDropShadow dx="0" dy="14" stdDeviation="12" flood-color="#75808b" flood-opacity=".26"/></filter></defs>
  <ellipse cx="128" cy="226" rx="58" ry="14" fill="#8793a1" opacity=".18" filter="url(#s)"/>
  <path d="M83 54c0-22 16-37 39-37h12c23 0 39 15 39 37v64H83z" fill="url(#c)" stroke="#cbd4df" stroke-width="2.5"/>
  <path d="M101 39h54" stroke="#f8fafc" stroke-width="6" stroke-linecap="round" opacity=".8"/>
  <path d="M70 118h116v52c0 20-14 33-34 33h-48c-20 0-34-13-34-33z" fill="url(#c)" stroke="#cbd4df" stroke-width="2.5"/>
  <path d="M88 137h80" stroke="#ffffff" stroke-width="5" stroke-linecap="round" opacity=".7"/>
  <path d="M128 202v28M88 236h80M98 229l-20 16M158 229l20 16" stroke="#aeb9c5" stroke-width="5" stroke-linecap="round"/>
  <circle cx="76" cy="246" r="5" fill="#aeb9c5"/><circle cx="180" cy="246" r="5" fill="#aeb9c5"/>
</svg>