<svg xmlns="http://www.w3.org/2000/svg" viewBox="0 0 256 256" role="img" aria-label="black cow walk frame 3">
  <ellipse cx="128" cy="226" rx="52" ry="12" fill="#0a0b0d" opacity=".14"/>
  <ellipse cx="122" cy="151" rx="31" ry="37" fill="#050607"/>
  <ellipse cx="151" cy="92" rx="28" ry="25" fill="#050607"/>
  <path d="M169 92c16 3 25 13 28 28-17 3-31-3-41-18z" fill="#050607"/>
  <path d="M131 80c-20-9-26-24-21-41 17 4 28 17 31 34z" fill="#050607"/>
  <path d="M153 65c-8-17-5-31 8-42 7 16 6 31-2 45z" fill="#050607"/>
  <path d="M175 68c10-15 10-29 0-42-9 14-11 28-5 43z" fill="#050607"/>
  <ellipse cx="166" cy="91" rx="3.2" ry="4.5" fill="#f8fafc" opacity=".92"/>
  <path d="M89 146c-14 2-25-4-31-18 14-3 25 2 34 13z" fill="#050607"/>
  <path d="M101 180c-18 8-30 22-33 42 16 1 30-8 42-28z" fill="#050607"/>
  <path d="M145 180c16 16 25 24 22 42-17-2-29-11-37-27z" fill="#050607"/>
  <rect x="92" y="174" width="70" height="14" rx="7" fill="#7d4dff" opacity=".96"/>
  <rect x="106" y="177" width="44" height="3" rx="2" fill="#ffffff" opacity=".78"/>
</svg>