<svg xmlns="http://www.w3.org/2000/svg" viewBox="0 0 256 256" role="img" aria-label="small black cow expert sprite">
  <g class="cow cow-small cow-front" transform="translate(128 132) scale(.82 .82) translate(-128 -132)">
    <ellipse cx="128" cy="218" rx="48" ry="12" fill="#0a0b0d" opacity=".15"/>
    <path d="M92 202c7-20 6-47 18-67 8-12 27-12 36 0 13 19 12 48 19 67z" fill="#050607"/>
    <ellipse cx="128" cy="142" rx="22" ry="30" fill="#050607"/>
    <ellipse cx="128" cy="82" rx="27" ry="30" fill="#050607"/>
    <path d="M101 74c-22-8-30-25-26-43 18 3 31 16 35 35z" fill="#050607"/>
    <path d="M155 74c22-8 30-25 26-43-18 3-31 16-35 35z" fill="#050607"/>
    <path d="M108 51c-8-16-6-31 5-43 8 15 9 30 3 46z" fill="#050607"/>
    <path d="M148 51c8-16 6-31-5-43-8 15-9 30-3 46z" fill="#050607"/>
    <ellipse cx="118" cy="84" rx="3.2" ry="4.6" fill="#f8fafc" opacity=".92"/>
    <ellipse cx="138" cy="84" rx="3.2" ry="4.6" fill="#f8fafc" opacity=".92"/>
    <path d="M115 105c10 6 20 6 30 0" fill="none" stroke="#f7f8fa" stroke-width="4" stroke-linecap="round" opacity=".82"/>
    <path d="M92 159c-18 8-28 24-27 43 15 0 27-8 35-24z" fill="#050607"/>
    <path d="M164 159c18 8 28 24 27 43-15 0-27-8-35-24z" fill="#050607"/>
    <path d="M110 188c-12 13-15 27-8 38 13-4 22-14 26-29z" fill="#050607"/>
    <path d="M146 188c12 13 15 27 8 38-13-4-22-14-26-29z" fill="#050607"/>
    <rect x="93" y="174" width="70" height="14" rx="7" fill="#2aa8ff" opacity=".96"/>
    <rect x="106" y="177" width="44" height="3" rx="2" fill="#ffffff" opacity=".78"/>
  </g>
</svg>